<?xml version="1.0" encoding="UTF-8" standalone="no"?>
<!-- Created with Inkscape (http://www.inkscape.org/) -->

<svg
   version="1.1"
   id="svg18"
   width="1216.7819"
   height="1345.5343"
   viewBox="0 0 1216.7819 1345.5343"
   sodipodi:docname="logo"
   inkscape:version="1.2 (56b05e47e7, 2022-06-09, custom)"
   xmlns:inkscape="http://www.inkscape.org/namespaces/inkscape"
   xmlns:sodipodi="http://sodipodi.sourceforge.net/DTD/sodipodi-0.dtd"
   xmlns="http://www.w3.org/2000/svg"
   xmlns:svg="http://www.w3.org/2000/svg">
  <defs
     id="defs22" />
  <sodipodi:namedview
     id="namedview20"
     pagecolor="#ffffff"
     bordercolor="#000000"
     borderopacity="0.25"
     inkscape:showpageshadow="2"
     inkscape:pageopacity="0.0"
     inkscape:pagecheckerboard="0"
     inkscape:deskcolor="#d1d1d1"
     showgrid="false"
     inkscape:zoom="0.35452871"
     inkscape:cx="1053.5113"
     inkscape:cy="751.70217"
     inkscape:window-width="1846"
     inkscape:window-height="1016"
     inkscape:window-x="1994"
     inkscape:window-y="27"
     inkscape:window-maximized="1"
     inkscape:current-layer="g24" />
  <g
     inkscape:groupmode="layer"
     inkscape:label="Image"
     id="g24"
     transform="translate(-128.4323,-115.1788)">
    <path
       style="fill:#000000;fill-opacity:1"
       d="m 710.3744,1460.4526 c -48.30811,-3.2685 -77.72911,-7.4625 -114.99996,-16.3935 -56.43198,-13.5224 -109.14377,-34.3354 -159,-62.7803 -21.15268,-12.0685 -27.3346,-16.0026 -51.5,-32.7746 -35.72061,-24.7919 -78.11678,-63.4501 -108.63372,-99.0559 -89.45077,-104.3671 -139.29808,-229.1493 -146.96873,-367.90507 -5.53402,-100.10583 16.42774,-206.18819 61.69362,-298 40.04923,-81.231 95.8584,-150.80117 166.36601,-207.38726 3.50383,-2.81201 6.71068,-5.11274 7.12634,-5.11274 0.41566,0 1.51539,2.28708 2.44385,5.0824 0.92846,2.79533 3.71277,8.08283 6.18737,11.75 2.4746,3.66718 5.16759,8.88604 5.98442,11.59746 2.31994,7.70089 5.68532,14.6624 9.47565,19.60097 1.91256,2.49195 4.02601,6.7096 4.69654,9.37255 1.58295,6.28645 5.50253,14.03364 9.7468,19.26492 1.86002,2.29256 3.39253,4.99256 3.40559,6 0.0379,2.92323 4.33591,12.59659 7.96651,17.92977 1.83536,2.69606 4.5434,8.27693 6.01789,12.40193 1.47448,4.125 3.01741,8.27035 3.42873,9.21189 0.6353,1.45424 -0.2067,1.32193 -5.59451,-0.87907 -3.4883,-1.42503 -11.51736,-4.4406 -17.84236,-6.70129 l -11.5,-4.11032 -16.07693,-0.0106 -16.07693,-0.0106 -4.81737,3 c -11.16778,6.9547 -11.33514,18.78606 -0.49046,34.67351 5.53005,8.10151 11.50609,15.1189 33.23189,39.02261 19.04931,20.95892 27.72767,31.49565 34.99468,42.48841 9.33368,14.11898 17.73512,33.78903 17.73512,41.52273 0,11.05759 -10.10972,20.80894 -34,32.79476 -12.2902,6.16602 -18.72747,10.44608 -25.33673,16.84606 -13.71212,13.27792 -22.68713,30.46645 -27.15391,52.00392 -5.3212,25.65725 -3.27207,52.88407 7.49967,99.64799 11.03329,47.89939 13.06839,62.26711 16.99732,119.99996 5.49226,80.70511 12.9451,119.51951 29.14947,151.81051 9.79961,19.528 19.34951,31.1787 42.58032,51.9472 64.71395,57.8546 132.19917,87.7423 198.11849,87.7423 37.65473,0 75.55303,-9.5079 109.95093,-27.5846 51.5223,-27.0757 110.9798,-83.5761 150.9214,-143.4154 37.2474,-55.8029 63.48628,-113.92941 80.80228,-178.99997 11.5353,-43.34733 15.32532,-73.22142 12.3695,-97.5 C 991.30208,742.06964 945.3788,702.26066 869.8744,695.37285 l -7,-0.63857 4.4527,-1.34072 c 16.2535,-4.89398 49.9357,-5.63219 66.6826,-1.46146 8.5905,2.13945 23.14848,8.03627 30.55388,12.37609 18.5533,10.87297 36.11362,30.4791 46.73842,52.18376 13.7464,28.08141 17.7927,52.92128 16.787,103.05128 -0.7308,36.42243 -5.3822,65.23259 -15.822,98 -15.58832,48.92657 -38.06272,89.91517 -76.5052,139.52967 -22.7086,29.3082 -37.0537,58.4855 -42.7591,86.9703 -5.6413,28.1652 -3.7448,56.9193 5.1448,78 5.7632,13.6669 11.0558,21.7489 20.2744,30.9597 9.6518,9.6437 16.5622,14.1273 28.0263,18.1841 23.02158,8.1467 48.37128,4.6598 74.0908,-10.1914 34.8284,-20.1111 55.8517,-48.8014 57.4873,-78.4524 0.6908,-12.5241 -1.0663,-21.3846 -6.4904,-32.7281 -7.0326,-14.7075 -16.9668,-24.8833 -30.6614,-31.4069 -13.572,-6.4653 -29.9992,-7.1485 -42.19532,-1.7549 l -3.8047,1.6825 10.00002,1.2581 c 13.533,1.7025 21.4129,3.8751 31.4815,8.6798 19.5721,9.3398 30.1649,27.1808 28.6593,48.2695 -1.3445,18.8318 -9.752,36.225 -25.0997,51.9254 -11.573,11.8388 -27.6943,21.2267 -41.46422,24.1457 -7.9622,1.6878 -24.0213,1.8442 -31.2777,0.3045 -10.4512,-2.2175 -21.79858,-9.4916 -29.86378,-19.1438 -19.7767,-23.6683 -25.8821,-65.8961 -15.2145,-105.2318 3.6984,-13.6374 12.267,-31.4615 21.1522,-44 4.7375,-6.6855 17.32358,-19.7122 24.12678,-24.9714 15.3582,-11.8727 24.4172,-15.7942 97.50012,-42.206 43.2777,-15.6404 73.319,-30.8888 91.9612,-46.6776 7.2048,-6.1021 20.3621,-20.35871 24.5904,-26.64501 10.0529,-14.946 18.3033,-35.62631 21.5432,-53.99996 2.1999,-12.47586 2.1586,-35.97658 -0.088,-49.84578 -12.9364,-79.87192 -73.5525,-165.28438 -166.6036,-234.75644 -8.0281,-5.99378 -16.6906,-12.35101 -19.25,-14.12717 -2.5591,-1.77617 -4.6532,-3.89307 -4.6532,-4.70422 0,-3.35096 -9.3446,-33.39806 -14.08182,-45.27921 -11.0584,-27.73479 -22.9734,-47.33788 -37.9038,-62.36044 -10.6032,-10.66873 -19.54328,-16.54223 -30.63398,-20.12611 l -7.1195,-2.30063 -2.6042,-12.5 C 913.8186,454.22291 897.363,409.29226 881.641,379.22216 868.5568,354.1971 852.1756,329.34764 840.4244,316.69857 c -13.4618,-14.49046 -24.0326,-11.12529 -43.4892,13.84466 -25.0494,32.14755 -44.3677,70.95637 -53.5778,107.63353 -7.8819,31.3878 -11.9337,40.81485 -21.8128,50.7504 -7.6314,7.67507 -14.6398,11.63638 -32.9503,18.62434 -13.7048,5.23024 -14.5393,5.14913 -15.6052,-1.5168 -0.9766,-6.10687 -4.28994,-14.179 -8.48311,-20.66664 -2.09149,-3.23594 -4.75729,-9.02032 -5.92401,-12.85418 -1.16672,-3.83386 -3.92889,-9.9639 -6.13815,-13.62231 -2.20926,-3.65842 -4.48068,-8.72138 -5.04758,-11.25103 -1.6898,-7.54021 -4.51102,-14.04476 -8.7818,-20.24714 -2.21554,-3.21759 -4.33213,-7.59546 -4.70354,-9.7286 -1.00993,-5.80042 -4.69193,-13.35577 -9.98993,-20.499 -2.60152,-3.50759 -5.41393,-8.68259 -6.24981,-11.5 -2.0622,-6.95084 -5.82791,-14.2537 -10.00243,-19.39771 -1.90817,-2.35132 -3.89925,-5.95132 -4.42462,-8 -1.44187,-5.62253 -3.91015,-11.1735 -7.43684,-16.72486 -1.74703,-2.75 -4.13823,-8.23343 -5.31379,-12.18541 -1.20733,-4.05879 -4.05338,-10.04266 -6.54062,-13.75178 -2.42178,-3.61152 -4.69919,-8.31808 -5.0609,-10.45904 -0.78669,-4.65642 -5.31859,-14.50082 -9.41921,-20.46086 -2.5124,-3.65165 -7.57095,-15.62574 -6.83566,-16.18069 2.11883,-1.59915 48.68864,-12.80948 64.00784,-15.40803 45.62716,-7.73959 64.92426,-9.41642 109.22946,-9.49149 40.2842,-0.0683 52.2457,0.7036 86,5.54951 26.5555,3.81241 37.0967,5.84404 62.1472,11.97779 77.35548,18.94092 150.605,53.65657 216.3931,102.55673 55.7773,41.45913 104.4782,92.82214 143.2048,151.03287 59.379,89.25358 93.5105,190.69005 100.8252,299.64549 1.5135,22.54439 0.6814,74.70978 -1.5101,94.67491 -0.8754,7.975 -2.7454,22.6 -4.1554,32.5 -20.6892,145.25537 -97.1034,281.84477 -210.9047,376.98947 -72.2451,60.4012 -155.81922,102.8645 -245.0001,124.4825 -33.241,8.0579 -57.6778,12.1474 -93,15.5636 -15.0504,1.4556 -67.4331,2.6903 -79.5,1.8738 z M 516.87444,1081.1512 c -3.3,-0.9623 -8.2913,-2.9267 -11.09177,-4.3654 -6.53444,-3.3571 -15.01594,-12.572 -16.44042,-17.8621 -2.12949,-7.9084 2.38194,-14.4114 11.66571,-16.8156 2.67656,-0.6932 5.48759,-1.4497 6.24673,-1.6812 1.09938,-0.3352 1.27981,-2.5029 0.88662,-10.6523 -0.55864,-11.5788 -1.93975,-15.8537 -8.37546,-25.9243 -5.73569,-8.97521 -7.71582,-10.80711 -11.68131,-10.80711 -5.02585,0 -14.4903,-2.6955 -21.7101,-6.1831 -11.92876,-5.7624 -23.62342,-19.9959 -29.09982,-35.4172 -2.78018,-7.8289 -3.04048,-20.85999 -0.56102,-28.08652 2.62744,-7.65787 8.90238,-16.73434 14.35794,-20.76825 11.58578,-8.56668 45.32724,-23.90242 60.69791,-27.58765 25.1362,-6.02658 44.55646,2.52771 51.8288,22.82972 2.46637,6.88529 2.93684,23.64351 0.90436,32.21304 -3.46279,14.60009 -15.20764,32.11896 -27.82215,41.49996 -4.6043,3.4241 -5.29481,4.36 -4.79603,6.5 2.61333,11.2129 15.22346,25.24651 31.06117,34.56751 10.46799,6.1607 24.98219,12.4325 28.77149,12.4325 3.62482,0 21.93014,-5.4754 38.62611,-11.5536 42.2537,-15.38261 80.7385,-32.88211 102.0312,-46.39501 9.8878,-6.275 12,-7.0748 12,-4.5433 0,2.1414 -11.5318,15.0916 -18.5658,20.8494 -6.2719,5.1339 -34.7786,24.12401 -58.66233,39.07881 -27.23425,17.0527 -36.42729,23.6151 -47.81986,34.1358 -17.62823,16.2792 -27.661,20.338 -60.39466,24.4333 -19.61058,2.4535 -33.87561,2.4883 -42.05731,0.1026 z m 522.79496,-45.1504 c -11.5909,-4.5959 -18.6833,-17.5753 -18.5523,-33.9515 0.061,-7.60291 0.7648,-10.70731 6.6294,-29.23591 7.0995,-22.43003 14.6306,-54.34778 17.6042,-74.60826 4.6792,-31.88131 5.0746,-65.96926 1.0748,-92.6619 -5.0024,-33.38389 -15.9846,-86.35647 -26.0571,-125.68737 -2.6322,-10.27805 -4.5546,-18.91852 -4.2721,-19.20104 0.9124,-0.91244 18.6468,11.4773 34.7782,24.29702 57.7147,45.86625 99.653,100.47508 116.8394,152.13961 8.3824,25.19821 11.1126,43.70979 10.3171,69.95178 -0.5847,19.2894 -2.1191,29.47315 -6.9308,46 -3.4204,11.74766 -4.907,14.99426 -10.3737,22.65516 -16.9084,23.695 -49.9834,46.51091 -84.141,58.04241 -9.0203,3.0452 -12.3684,3.6719 -21.211,3.9699 -8.8153,0.2971 -11.3351,0.023 -15.7051,-1.7099 z M 448.12036,817.00509 c -6.64608,-1.65051 -13.99625,-6.05219 -19.8034,-11.85934 -8.64444,-8.64444 -9.20235,-10.17892 -6.8669,-18.88674 3.98509,-14.85856 9.36139,-24.67267 17.6818,-32.27705 17.88412,-16.34508 41.75289,-15.86189 55.42041,1.1219 5.77565,7.17704 5.68913,23.52105 -0.18823,35.56069 -8.18784,16.7726 -31.4398,30.01699 -46.24368,26.34054 z m 4.461,-13.58461 c -3.5547,-3.17098 -7.46887,-7.84678 -8.99519,-10.7455 -2.38491,-4.52931 -2.70268,-6.24699 -2.70692,-14.63175 -0.004,-8.37516 0.31592,-10.12162 2.70392,-14.75 1.48981,-2.8875 2.33462,-5.25 1.87736,-5.25 -1.7853,0 -9.13451,9.1521 -12.17849,15.16608 -2.95881,5.84571 -5.86741,14.54169 -5.89573,17.62676 -0.0143,1.55332 8.2324,10.53284 12.39596,13.49756 3.42073,2.43577 10.51639,4.54625 15.59217,4.63761 l 3.5,0.063 z m 13.2879,-43.01363 c 2.0106,-0.77155 3.67097,-4.76801 2.85948,-6.88272 -0.96124,-2.50495 -3.9193,-3.59678 -6.78883,-2.50579 -2.07467,0.78879 -2.56547,1.6402 -2.56547,4.45045 0,4.36996 2.67507,6.40383 6.49482,4.93806 z m 193.00518,19.95345 c -10.96593,-0.70717 -21.97784,-2.52272 -27.34627,-4.50862 -6.032,-2.23138 -11.15373,-5.37169 -11.15373,-6.83874 0,-0.49176 2.51579,-3.71361 5.59065,-7.15967 5.69503,-6.38253 9.70681,-12.66084 17.77036,-27.81004 9.15776,-17.20491 18.31635,-26.69119 31.86935,-33.00963 10.5056,-4.8977 17.7879,-6.28489 30.2506,-5.76236 9.3579,0.39236 12.2518,0.94437 19.1965,3.66171 4.4976,1.75984 11.467,5.42959 15.4875,8.15499 4.0205,2.72541 8.0481,4.95529 8.9501,4.95529 6.3002,0 5.8826,17.02953 -0.7566,30.85129 -2.4716,5.14553 -5.8206,9.74775 -11.1617,15.33822 -6.571,6.87775 -9.0241,8.66147 -17.6637,12.84397 -5.5182,2.67136 -12.8411,5.56781 -16.273,6.43655 -11.1626,2.8256 -28.2442,3.9121 -44.76006,2.84704 z m 29.96136,-8.48144 2.5366,-1.15574 -4.7631,-3.20767 c -9.4837,-6.38668 -15.8694,-15.59116 -16.90959,-24.3736 -0.87072,-7.35187 3.01369,-18.9172 8.52519,-25.38237 1.4411,-1.6905 1.6359,-1.63919 3.7256,0.98156 1.9471,2.44194 2.5393,2.64836 5.0644,1.76534 5.1158,-1.78898 4.14,-9.46315 -1.2033,-9.46315 -3.1934,0 -16.10964,4.75963 -20.40554,7.51942 -15.62047,10.03498 -19.62475,27.91619 -9.51756,42.50087 7.4384,10.73361 22.3695,15.63492 32.9473,10.81534 z M 586.12994,649.52931 c -1.50947,-0.84931 -3.62046,-3.26122 -4.69108,-5.35982 -1.8581,-3.64216 -8.22871,-10.12626 -9.94903,-10.12626 -0.44826,0 -0.60065,-3.34028 -0.33865,-7.42285 0.40085,-6.24609 0.12531,-8.14804 -1.7381,-11.99732 -2.30712,-4.76588 -9.01331,-11.28463 -12.51182,-12.16211 -1.8316,-0.4594 -2.02682,-1.30573 -2.02682,-8.78695 0,-7.4613 -0.29863,-8.7649 -3.02497,-13.20468 -1.73202,-2.82054 -4.99563,-6.20837 -7.63547,-7.92609 l -4.6105,-3 0.0571,-6.13901 c 0.0956,-10.27678 -6.04796,-20.03873 -14.67557,-23.31893 -2.3527,-0.8945 -2.48614,-1.29736 -1.94453,-5.87046 1.09394,-9.23658 -4.52197,-20.01678 -12.56532,-24.1202 l -3.70579,-1.89055 0.38981,-6.33042 c 0.29344,-4.76554 -0.10239,-7.46963 -1.60126,-10.93883 -2.26658,-5.24613 -7.83248,-11.08934 -12.34251,-12.95745 -2.83757,-1.17537 -3.02138,-1.55273 -2.53232,-5.19891 1.15779,-8.63198 -4.02181,-19.51963 -11.20734,-23.55812 l -3.87116,-2.17571 0.50466,-6.28695 c 0.40649,-5.064 0.0691,-7.29952 -1.73465,-11.49235 -2.41513,-5.61414 -8.41969,-11.78732 -12.44901,-12.79862 -2.39988,-0.60233 -2.47516,-0.85748 -1.8939,-6.41869 0.33293,-3.18528 0.31298,-7.34975 -0.0443,-9.25437 -0.95007,-5.06429 -6.1992,-12.39033 -10.87595,-15.17921 l -4.07557,-2.43038 0.23377,-6.4482 c 0.37008,-10.20848 -4.32315,-18.78502 -12.42596,-22.70752 -4.01715,-1.94467 -4.29338,-2.31749 -3.4197,-4.61544 2.69301,-7.08317 -0.26257,-16.90989 -7.22952,-24.03669 -3.85839,-3.94691 -4.01403,-4.33772 -2.94679,-7.39922 0.61972,-1.77772 1.10701,-4.62757 1.08287,-6.33299 -0.0969,-6.84288 -5.79019,-17.21541 -11.19236,-20.39108 -2.67142,-1.57039 -2.8582,-2.04648 -2.2923,-5.84303 1.43724,-9.6422 -4.01536,-18.53402 -12.20007,-19.89526 -6.59542,-1.09692 -6.6907,-1.18251 -4.69945,-4.22154 2.65301,-4.04901 2.57561,-14.21698 -0.13646,-17.92624 -3.17728,-4.34551 -8.79071,-6.61705 -17.61429,-7.12784 -10.51646,-0.60879 -12.82119,0.80401 -12.82119,7.85938 0,5.60506 1.82502,10.71557 5.58887,15.65023 2.71421,3.55851 9.05044,7.2946 12.37129,7.2946 2.4787,0 2.47623,-0.27883 0.0398,4.5 -4.1965,8.23118 -1.88513,16.78912 5.82977,21.58496 l 4.92101,3.05907 -0.9734,3.83491 c -1.56763,6.17596 1.21434,13.98162 7.19425,20.18567 4.27582,4.43609 4.77222,5.37892 3.95862,7.51885 -1.41783,3.72918 -1.111,11.6397 0.61137,15.76191 1.97276,4.72148 8.64438,11.97482 12.47318,13.56076 2.55726,1.05925 2.86785,1.58969 2.2607,3.86091 -2.55292,9.54993 1.45529,20.02781 10.04048,26.2469 l 4.05316,2.93609 0.10378,7.22498 c 0.0763,5.31091 0.67409,8.30977 2.25651,11.31967 2.50187,4.75875 8.32058,10.17819 12.48779,11.63089 2.13754,0.74515 2.72498,1.44375 2.22295,2.64361 -0.37528,0.89695 -0.91084,3.776 -1.19012,6.3979 -0.42208,3.96243 0.0303,5.86008 2.68007,11.24255 2.89313,5.87676 5.5604,8.57869 12.76882,12.93469 0.10941,0.0661 -0.2722,1.97632 -0.84802,4.24488 -2.19665,8.65411 5.08501,22.35015 13.50062,25.39328 3.12708,1.13076 3.14864,1.18697 3.17485,8.27801 0.0374,10.1049 4.28406,17.41009 12.61142,21.69418 l 3.63781,1.87151 -0.52196,6.50256 c -0.4558,5.67829 -0.17422,7.21335 2.22136,12.10973 2.7567,5.63449 8.49256,10.91332 13.1202,12.07478 1.97307,0.49521 2.11436,0.90399 1.28632,3.72153 -2.01934,6.87119 1.87125,17.58585 8.42144,23.19256 2.23136,1.90996 4.62151,3.47266 5.31146,3.47266 0.90132,0 1.22152,2.04083 1.13749,7.25 -0.17068,10.58201 4.52939,18.83191 13.24491,23.2484 4.77814,2.42127 4.85441,2.53271 3.92484,5.73542 -2.17924,7.50837 2.81674,19.57939 10.09781,24.39778 2.18928,1.44879 3.98051,2.9733 3.98051,3.38779 0,1.26808 -6.00615,1.72125 -10.84117,0.81797 -5.904,-1.10299 -11.37641,-4.94067 -15.13345,-10.61276 -3.75708,-5.67215 -7.2611,-14.90654 -6.53019,-17.20945 0.45798,-1.44295 -0.2214,-1.8369 -3.87864,-2.24912 -5.80762,-0.65461 -9.99892,-3.76045 -13.63862,-10.10652 -3.12957,-5.45663 -4.06302,-13.76347 -1.9833,-17.64947 0.84646,-1.58164 0.48388,-2.02704 -2.43403,-2.99004 -7.35397,-2.42703 -14.4421,-14.80427 -12.97045,-22.64887 0.52726,-2.8105 0.24236,-3.4082 -2.24309,-4.70598 -8.47061,-4.42294 -13.7228,-16.60448 -10.9398,-25.37295 0.52763,-1.66241 0.11712,-2.19401 -2.12671,-2.75408 -10.06288,-2.51169 -17.61904,-14.66956 -15.3553,-24.70667 0.81544,-3.61559 0.78463,-3.66326 -2.80037,-4.33247 -7.94596,-1.48326 -16.25107,-14.97894 -14.60792,-23.73767 0.54857,-2.92417 0.28571,-3.52896 -2.08536,-4.79791 -3.74298,-2.00319 -9.21078,-9.4296 -10.51859,-14.28646 -0.59754,-2.21911 -0.79485,-5.97923 -0.43845,-8.35584 0.52345,-3.49062 0.35461,-4.3211 -0.87849,-4.3211 -2.37628,0 -8.49406,-5.87971 -10.77998,-10.3605 -1.44438,-2.83121 -2.06609,-5.95578 -2.06609,-10.38364 0,-5.90144 -0.18811,-6.43106 -2.75588,-7.7589 -6.89895,-3.56759 -11.34597,-12.18597 -10.75324,-20.83994 0.35691,-5.21113 0.17293,-5.92939 -1.70141,-6.64201 -3.4227,-1.30131 -9.42211,-8.14085 -11.1812,-12.74696 -1.13606,-2.97471 -1.46584,-5.93684 -1.07865,-9.68839 0.52091,-5.04712 0.40321,-5.44245 -1.78388,-5.99137 -8.75149,-2.19649 -15.40782,-16.00988 -12.20057,-25.31897 l 1.40988,-4.09222 -4.20197,-2.96182 c -5.52935,-3.89748 -8.50304,-10.05098 -8.50304,-17.59556 0,-5.17837 -0.30205,-6.003 -3.04385,-8.31007 -5.09979,-4.29119 -7.37622,-9.81241 -7.41878,-17.99337 -0.0334,-6.41327 -0.32662,-7.48577 -2.73432,-10 -5.47675,-5.71907 -7.50641,-16.12166 -4.34015,-22.24453 1.34792,-2.60659 1.30047,-2.97592 -0.60365,-4.69912 -5.70001,-5.15844 -9.05362,-15.50771 -6.96586,-21.49667 1.00738,-2.88976 0.86969,-3.52083 -1.26746,-5.80896 -7.52338,-8.05493 -8.60212,-20.98295 -2.24889,-26.9515 l 2.31901,-2.17859 -2.34803,-4.63794 c -2.64663,-5.22776 -3.00062,-10.82137 -0.98604,-15.5811 2.20936,-5.21991 5.1702,-7.20747 10.74512,-7.21301 3.95811,-0.004 4.79322,-0.29515 4.31532,-1.50487 -2.57689,-6.52299 -1.45563,-13.81294 2.77533,-18.0439 2.91669,-2.91669 3.52171,-3.09986 9.21198,-2.78891 l 6.09027,0.33281 0.56584,-4.23951 c 1.32393,-9.91959 11.45528,-13.73563 20.5851,-7.75355 2.55242,1.67241 4.34906,1.26375 4.34906,-0.98923 0,-2.60879 5.07205,-7.44059 8.48211,-8.08032 5.32263,-0.99853 9.34582,0.4314 14.14107,5.02606 l 4.45358,4.26726 2.93768,-2.74419 c 3.48285,-3.25346 6.98562,-4.10139 11.63716,-2.81704 3.99468,1.10298 9.85533,5.97634 11.86827,9.86895 l 1.41771,2.74153 4.09892,-2.02798 c 3.59015,-1.77627 4.59471,-1.87944 8.09338,-0.83121 4.97685,1.4911 11.48776,7.26504 13.52788,11.99668 0.84958,1.9704 1.59715,5.94505 1.66127,8.83255 0.10024,4.51397 0.39227,5.25 2.08305,5.25 3.51772,0 10.3722,4.01528 13.21338,7.74026 3.32676,4.36161 5.47252,11.94275 4.71008,16.64112 -0.47904,2.95195 -0.23518,3.50839 1.81043,4.13111 7.58887,2.31016 13.83658,11.83271 13.85426,21.11619 0.009,4.75432 0.22921,5.21958 3.01611,6.37395 7.81212,3.23588 13.6113,13.2177 12.76942,21.97933 -0.33118,3.44659 -0.11477,5.01805 0.69103,5.01805 2.38944,0 9.35223,7.09042 10.9953,11.19685 0.93363,2.33339 1.68508,6.84367 1.66987,10.02284 -0.0152,3.17917 0.36436,5.78031 0.84347,5.78031 0.47912,0 2.31995,1.21911 4.09074,2.70913 4.37346,3.68003 7.9026,11.56577 7.96201,17.79087 0.0444,4.65013 0.31657,5.18579 3.88977,7.65506 2.46086,1.70058 4.83265,4.67977 6.59757,8.28714 2.37147,4.8471 2.68016,6.46317 2.21483,11.59494 -0.29738,3.27957 -0.13466,5.96286 0.3616,5.96286 1.92005,0 9.31001,7.69621 11.04239,11.5 1.00195,2.2 1.83162,6.27667 1.8437,9.05927 0.0203,4.66768 0.39107,5.44222 4.79084,10.0069 6.34292,6.58067 8.71071,14.412 6.28581,20.78997 -0.83126,2.18638 -0.61851,2.60026 1.76346,3.43062 4.1225,1.43711 9.02985,5.99888 11.39121,10.58903 2.16595,4.2103 2.94934,12.33336 1.55502,16.12421 -0.6207,1.68753 -0.028,2.2917 3.79359,3.86709 8.53378,3.51789 14.90373,15.67953 12.59399,24.04471 -0.93756,3.39559 -0.82626,3.70526 1.82441,5.07598 7.82189,4.04486 13.41376,15.81804 11.24453,23.67435 -0.97379,3.52678 -0.89608,3.68182 3.34292,6.66974 6.11856,4.31277 8.83449,9.96043 8.89099,18.48847 0.0382,5.77147 0.35276,6.98431 2.04519,7.88657 8.11216,4.32471 13.46549,16.71613 10.67719,24.71464 -0.64239,1.84276 -0.69379,3.07845 -0.12805,3.07845 2.22626,0 8.88857,7.42772 10.94039,12.19729 2.59265,6.02678 2.39223,13.6184 -0.44221,16.75042 -1.66764,1.84273 -1.63512,2.07306 0.73996,5.23987 4.48487,5.97991 6.96608,12.10017 7.47478,18.43737 0.7783,9.69532 -0.2383,12.94653 -5.78121,18.48944 -5.71606,5.71606 -7.34374,6.22504 -5.80665,1.81575 1.42462,-4.08667 0.54743,-11.08178 -1.78798,-14.25825 -1.03742,-1.41103 -3.32762,-3.35541 -5.08933,-4.32085 l -3.20311,-1.75534 0.58513,-7.58781 c 1.06395,-13.79696 -3.48577,-23.05997 -14.33332,-29.18194 -4.6727,-2.63711 -5.30219,-3.34307 -4.62705,-5.18916 1.44594,-3.95373 0.68533,-11.99516 -1.54464,-16.3305 -2.60628,-5.06695 -8.65281,-11.1374 -11.90704,-11.95416 -2.10209,-0.52759 -2.28139,-0.95178 -1.57399,-3.72377 2.44384,-9.5764 -1.91578,-21.02265 -9.95173,-26.12836 -4.71785,-2.99753 -4.72127,-3.0038 -4.15629,-7.61408 1.1384,-9.28948 -4.00634,-19.70447 -12.06697,-24.42831 -4.02452,-2.35852 -4.33362,-2.81205 -3.46809,-5.08856 3.41016,-8.9694 -4.64778,-24.67028 -14.11723,-27.5074 -2.16291,-0.64802 -3.93256,-1.27704 -3.93256,-1.39781 0,-0.12078 0.72668,-1.95879 1.61485,-4.08447 3.52145,-8.42801 -0.64604,-20.62311 -9.07892,-26.56715 -4.10781,-2.89545 -4.24637,-3.16223 -3.45797,-6.6579 2.125,-9.42194 -4.66557,-21.57848 -14.3022,-25.60393 -3.42367,-1.43015 -3.64561,-1.76251 -2.75,-4.11815 3.99689,-10.5126 -2.76269,-24.87494 -13.66731,-29.03945 -3.65559,-1.39608 -4.15168,-1.91062 -3.32729,-3.45101 0.53286,-0.99566 0.96884,-4.09479 0.96884,-6.88694 0,-7.82157 -4.6595,-16.16473 -11.54865,-20.67868 -1.79372,-1.17529 -2.45135,-2.50421 -2.45135,-4.95366 0,-8.27892 -6.03758,-17.95353 -13.56873,-21.74249 -2.99725,-1.50793 -3.05869,-1.68277 -2.63748,-7.50598 0.75261,-10.40466 -3.15265,-16.84722 -11.58926,-19.11897 l -3.70453,-0.99752 v -9.77878 c 0,-11.91883 -2.18199,-18.90987 -6.21818,-19.92289 -5.89768,-1.48022 -21.365,9.5256 -23.25588,16.5478 -2.13568,7.9313 2.90643,16.01607 11.40631,18.28944 4.5017,1.20402 4.61018,1.32404 3.86242,4.27286 -2.34309,9.24009 1.23803,18.21103 8.52968,21.36739 l 4.52705,1.95964 0.0743,7.93248 c 0.0657,7.01569 0.42501,8.50122 3.10879,12.8535 1.66897,2.70656 4.70647,6.00891 6.75,7.33856 3.28162,2.13523 3.71665,2.89429 3.72528,6.5 0.0206,8.60444 8.70662,20.48271 16.17804,22.12371 1.89871,0.41703 2.7705,1.12502 2.44138,1.98269 -3.99193,10.40279 2.85389,25.99006 13.03091,29.67011 2.80664,1.0149 3.33799,1.6316 2.82434,3.27801 -1.95508,6.26664 -1.69862,11.37835 0.83688,16.68059 2.78675,5.82766 4.59795,8.13586 9.17714,11.69532 2.82576,2.1965 2.9787,2.67385 2.65532,8.28773 -0.28161,4.88875 0.14173,6.948 2.36071,11.48345 2.75576,5.63257 8.49368,10.84283 13.25769,12.03852 1.88818,0.4739 2.2562,1.04848 1.74315,2.72153 -2.82552,9.21398 -2.70914,13.28324 0.56112,19.6208 2.29884,4.45499 7.17003,9.55898 11.02608,11.55302 2.45276,1.26837 2.86252,1.95146 2.24889,3.74897 -3.17399,9.29759 4.00626,24.22211 13.36527,27.7804 1.97124,0.74946 2.21056,1.31097 1.55637,3.65163 -2.81754,10.08104 3.43537,22.98659 13.31926,27.49 1.6837,0.76714 2.2795,1.63906 1.84778,2.7041 -3.79158,9.3537 2.00358,23.22613 11.93748,28.57589 3.57365,1.92454 3.58601,1.95446 2.9701,7.19486 -0.91631,7.79639 1.11515,13.76517 6.5868,19.3531 2.51103,2.56441 5.35672,5.08425 6.32374,5.59964 1.47913,0.78834 1.62978,1.64434 0.94913,5.39274 -1.66165,9.15074 2.04384,18.30565 9.58137,23.67208 3.68265,2.6219 3.71128,2.69682 3.71128,9.71293 0,5.59976 0.46376,7.79873 2.22932,10.57064 4.42884,6.95321 4.64552,7.68085 3.27351,10.99316 -1.67623,4.04678 -8.76282,8.25127 -13.18685,7.82377 -3.45342,-0.3337 -3.34192,-0.15039 -5.76096,-9.47168 -1.33936,-5.16097 -8.90068,-13.79838 -13.55156,-15.48016 l -3.39437,-1.22742 0.57527,-6.16047 c 0.96447,-10.32827 -3.31464,-19.36948 -11.68436,-24.68758 l -4.5,-2.85929 -0.005,-6.79625 c -0.004,-5.57721 -0.54433,-7.85022 -3.01038,-12.67221 -2.64231,-5.16662 -8.75925,-11.37814 -12.41787,-12.60987 -0.72504,-0.2441 -0.71821,-1.5362 0.0223,-4.21522 2.63158,-9.52077 -2.77427,-21.93629 -11.81565,-27.13678 -3.59537,-2.06801 -5.04368,-3.46599 -4.66202,-4.5 0.30452,-0.825 0.79752,-3.79416 1.09554,-6.59814 0.98482,-9.2656 -6.22286,-21.19267 -15.04989,-24.90416 -2.93987,-1.23612 -2.99406,-1.3899 -2.76048,-7.83306 0.17191,-4.74203 -0.30196,-7.79345 -1.7017,-10.95781 -2.34774,-5.30745 -8.24685,-11.41292 -12.9095,-13.3611 -3.20659,-1.3398 -3.37284,-1.63581 -2.6051,-4.63843 2.57789,-10.08207 -1.70334,-21.63385 -10.17992,-27.46784 l -5,-3.44124 0.34676,-6.78616 c 0.26205,-5.12844 -0.13017,-7.86434 -1.60566,-11.19991 -2.51074,-5.67595 -7.34516,-11.15911 -11.63263,-13.19365 l -3.37936,-1.60361 0.49697,-6.25745 c 0.27334,-3.44159 -0.0155,-8.15102 -0.64177,-10.46539 -1.53549,-5.674 -6.74556,-12.27649 -11.96581,-15.16376 -3.53561,-1.9555 -4.17429,-2.74518 -3.63952,-4.5 3.48916,-11.44939 -0.23039,-21.6175 -10.24,-27.99308 -3.17352,-2.02136 -3.37269,-2.4935 -3.73525,-8.85452 -0.21065,-3.69563 -1.2351,-8.64563 -2.27657,-11 -1.7192,-3.88574 -8.1633,-10.78069 -10.0761,-10.78069 -0.42845,0 -0.58281,-2.71248 -0.343,-6.02773 0.85618,-11.83664 -3.17936,-18.77787 -12.24429,-21.06045 l -4.26575,-1.07413 1.85082,-3.63028 c 3.88148,-7.6133 1.15585,-20.44697 -5.02093,-23.6411 -4.00452,-2.07082 -6.02015,-1.96775 -9.62824,0.49234 -1.65,1.12502 -5.7,3.43009 -9,5.1224 -3.3,1.6923 -6.33061,3.58137 -6.73469,4.19793 -1.31876,2.01223 -0.76098,8.03384 1.1298,12.19688 2.03973,4.49101 6.54795,7.2715 13.2466,8.16997 4.32891,0.58063 4.46504,0.86216 2.36445,4.88986 -1.91944,3.68036 -1.95063,14.36478 -0.0552,18.90123 0.8368,2.00274 2.96162,4.36399 5.01979,5.57834 3.49299,2.06091 3.55525,2.20787 2.93055,6.91711 -1.25593,9.46766 3.66567,21.0316 11.10806,26.09984 3.29102,2.24117 3.47732,2.67585 3.48379,8.12869 0.0125,10.49839 8.98558,23.49618 14.70549,21.30124 1.21554,-0.46645 1.39518,-0.11194 0.84774,1.673 -1.84393,6.01211 -1.69526,11.35866 0.47633,17.12966 2.4073,6.39743 8.34598,13.18767 12.43037,14.21279 2.46263,0.61808 2.49372,0.74975 1.88301,7.97447 -0.4265,5.04547 -0.2099,8.37978 0.69165,10.64698 2.35662,5.92644 7.88425,12.59734 12.004,14.48679 3.66738,1.68196 3.90237,2.03279 3.2246,4.81417 -2.75531,11.30689 3.88075,24.73455 14.39515,29.12775 2.98995,1.24928 3.20625,1.61618 2.32273,3.94001 -1.35161,3.55501 -1.14258,11.21508 0.42588,15.60681 1.97876,5.54055 7.28445,11.62679 12.4037,14.22847 l 4.57335,2.32424 -0.26171,5.64978 c -0.53626,11.57683 3.96599,18.91778 15.67585,25.55961 1.00439,0.56969 1.06068,1.76159 0.25333,5.36415 -2.11929,9.45669 3.17297,21.51937 11.67658,26.6145 4.10843,2.46167 4.27969,2.75125 3.59849,6.08468 -1.09993,5.38248 -0.47211,11.86705 1.60315,16.55853 2.10565,4.76015 9.22815,12.19046 12.46331,13.00192 1.94085,0.48681 2.11383,1.21406 2.11383,8.88708 0,8.11027 0.11814,8.52946 4.00316,14.20468 2.9278,4.27692 5.34543,6.51935 9,8.34779 2.74826,1.375 5.07756,2.50572 5.17622,2.51271 0.0987,0.007 -0.27337,2.13554 -0.82674,4.73011 -1.38233,6.48131 0.84362,13.76629 6.1655,20.17812 l 4.08442,4.92094 -2.04607,2.04608 c -2.71726,2.71726 -14.19883,3.40619 -18.30099,1.09812 z M 406.02338,192.22232 c 8.36989,-4.27 23.35106,-23.78005 23.35106,-30.41019 0,-3.50418 -3.44142,-5.49257 -11.93363,-6.89502 -8.41059,-1.38898 -18.8618,-0.0392 -25.35815,3.27496 -9.33142,4.76054 -24.15696,22.28182 -23.503,27.77657 0.89861,7.55028 26.51571,11.82873 37.44372,6.25368 z M 805.7427,559.1525 c -17.7709,-10.43955 -34.9679,-49.8682 -41.4825,-95.10927 -1.7618,-12.23542 -1.5474,-42.52963 0.3752,-53 2.5652,-13.97019 7.8768,-25.58345 17.7408,-38.78825 7.2817,-9.74804 27.9905,-30.87811 31.6118,-32.25492 4.9331,-1.87557 3.5363,-3.80129 26.87,37.04317 29.0753,50.89493 38.5164,76.96132 38.5164,106.34171 0,14.15471 -1.5178,22.87939 -6.0041,34.51282 -9.2563,24.00232 -31.9794,41.96078 -55.3288,43.7272 -6.6622,0.50401 -7.5285,0.32985 -12.2988,-2.47246 z"
       id="path449" />
  </g>
</svg>
